<?xml version="1.0" standalone="no"?><!DOCTYPE svg PUBLIC "-//W3C//DTD SVG 1.1//EN" "http://www.w3.org/Graphics/SVG/1.1/DTD/svg11.dtd"><svg t="1664161512111" class="icon" viewBox="0 0 1024 1024" version="1.1" xmlns="http://www.w3.org/2000/svg" p-id="9687" xmlns:xlink="http://www.w3.org/1999/xlink" width="200" height="200"><path d="M512 512m-512 0a512 512 0 1 0 1024 0 512 512 0 1 0-1024 0Z" fill="#FC8BA4" p-id="9688"></path><path d="M512 512m-512 0a512 512 0 1 0 1024 0 512 512 0 1 0-1024 0Z" fill="#FC8BA4" p-id="9689"></path><path d="M516 1022.4c80.8 0 156.8-18.4 224-52-12-115.2-108.8-204.8-227.2-204.8-117.6 0-213.6 88-227.2 202.4 69.6 34.4 147.2 54.4 230.4 54.4z" fill="#F74541" p-id="9690"></path><path d="M304 840c-17.6 0-32-14.4-32-32V411.2c0-17.6 6.4-44.8 13.6-60.8 0 0 91.2-189.6 228.8-189.6 137.6 0 231.2 189.6 231.2 189.6 8 16 14.4 43.2 14.4 60.8V808c0 17.6-14.4 32-32 32H304z" fill="#633C22" p-id="9691"></path><path d="M516 1022.4c80.8 0 156.8-18.4 224-52-12-115.2-108.8-204.8-227.2-204.8-117.6 0-213.6 88-227.2 202.4 69.6 34.4 147.2 54.4 230.4 54.4z" fill="#F74541" p-id="9692"></path><path d="M552 795.2c0 18.4-16 28.8-32 28.8s-32-10.4-32-28.8v-71.2c0-18.4 16-28 32-28s32 9.6 32 28v71.2zM228.8 506.4c0 24 19.2 43.2 43.2 43.2 24 0 43.2-21.6 43.2-45.6S296 462.4 272 462.4c-24 0.8-43.2 20-43.2 44zM804 506.4c0 24-19.2 43.2-43.2 43.2-24 0-43.2-21.6-43.2-45.6s19.2-41.6 43.2-41.6c24 0.8 43.2 20 43.2 44z" fill="#F9D4CA" p-id="9693"></path><path d="M514.4 217.6c119.2 0 216 96.8 216 216V520c0 119.2-96.8 216-216 216s-216-96.8-216-216V433.6c0.8-119.2 96.8-216 216-216z" fill="#F9D4CA" p-id="9694"></path><path d="M360 528c0-16.8 14.4-32 32-32s32 15.2 32 32h-64z" p-id="9695"></path><path d="M514.4 690.4c-119.2 0-216-96.8-216-216v44.8c0 119.2 96.8 216 216 216s216-96.8 216-216v-44.8c0 120-96.8 216-216 216z" fill="#EFBFB4" p-id="9696"></path><path d="M592 528c0-16.8 14.4-32 32-32s32 15.2 32 32h-64z" p-id="9697"></path><path d="M568 616c0 27.2-20 48-48 48s-48-20.8-48-48h96z" fill="#FFFFFF" p-id="9698"></path><path d="M400 572c0 11.2-8 20-18.4 20h-27.2C344 592 336 583.2 336 572s8-20 18.4-20h27.2c10.4 0 18.4 8.8 18.4 20zM696 572c0 11.2-8 20-18.4 20h-27.2C640 592 632 583.2 632 572s8-20 18.4-20h27.2c10.4 0 18.4 8.8 18.4 20z" fill="#F29F8F" p-id="9699"></path><path d="M416 464h-48c-4 0-8-3.2-8-8s3.2-8 8-8h48c4 0 8 3.2 8 8s-3.2 8-8 8zM655.2 464H600c-4.8 0-8.8-3.2-8.8-8s4-8 8.8-8h55.2c4.8 0 8.8 3.2 8.8 8s-4 8-8.8 8z" fill="#442611" p-id="9700"></path><path d="M514.4 160.8C292 160.8 280 384 280 387.2v281.6h40V409.6h392.8v259.2H752V409.6s4-248.8-237.6-248.8z" fill="#633C22" p-id="9701"></path><path d="M692 944.8c-3.2 0-6.4-1.6-7.2-4.8-4.8-12-9.6-22.4-14.4-32-2.4-4-0.8-8.8 3.2-11.2 4-2.4 8.8-0.8 11.2 3.2 5.6 10.4 10.4 21.6 15.2 34.4 1.6 4-0.8 8.8-4.8 10.4-0.8-0.8-2.4 0-3.2 0zM659.2 883.2c-2.4 0-4.8-0.8-6.4-3.2-20.8-28-44.8-40.8-64.8-49.6-4-1.6-5.6-6.4-4-10.4 1.6-4 6.4-5.6 10.4-4 22.4 10.4 48 23.2 71.2 55.2 2.4 3.2 1.6 8.8-1.6 11.2-1.6 0.8-3.2 0.8-4.8 0.8z" fill="#FF9E99" p-id="9702"></path><path d="M712 350.4c-3.2 0-6.4-2.4-7.2-5.6-14.4-40.8-42.4-77.6-78.4-102.4-4-2.4-4.8-7.2-2.4-11.2 2.4-4 7.2-4.8 11.2-2.4 39.2 26.4 68.8 65.6 84.8 110.4 1.6 4-0.8 8.8-4.8 10.4-1.6 0.8-2.4 0.8-3.2 0.8zM578.4 218.4c-0.8 0-1.6 0-2.4-0.8-20.8-7.2-41.6-10.4-63.2-10.4-4.8 0-8-3.2-8-8s3.2-8 8-8c23.2 0 46.4 4 68 11.2 4 1.6 6.4 5.6 4.8 10.4-0.8 3.2-4 5.6-7.2 5.6z" fill="#915B36" p-id="9703"></path><path d="M720 416H312c-4.8 0-8-3.2-8-8s3.2-8 8-8h408c4.8 0 8 3.2 8 8s-3.2 8-8 8z" fill="#442611" p-id="9704"></path><path d="M536 568c0 8.8-8 16-16 16s-16-7.2-16-16v-40c0-8.8 8-16 16-16s16 7.2 16 16v40z" fill="#EFBFB4" p-id="9705"></path><path d="M940 425.6c0-3.2-3.2-6.4-8-7.2l-15.2-2.4c-4-0.8-8.8-4.8-8.8-8.8l-2.4-15.2c-0.8-4-4-8-7.2-8s-6.4 3.2-7.2 8l-2.4 15.2c-0.8 4-4.8 8.8-8.8 8.8l-15.2 2.4c-4 0.8-8 4-8 7.2s3.2 6.4 8 7.2l15.2 2.4c4 0.8 8.8 4.8 8.8 8.8l2.4 15.2c0.8 4 4 8 7.2 8s6.4-3.2 7.2-8l2.4-16.8c0.8-4 4.8-8 8.8-8.8l14.4-0.8c4.8-0.8 8.8-4 8.8-7.2zM220 657.6c0-3.2-3.2-6.4-8-7.2l-15.2-2.4c-4-0.8-8.8-4.8-8.8-8.8l-2.4-15.2c-0.8-4-4-8-7.2-8s-6.4 3.2-7.2 8l-1.6 16c-0.8 4-4.8 8.8-8.8 8.8l-15.2 2.4c-4 0.8-8 4-8 7.2s3.2 6.4 8 7.2l15.2 2.4c4 0.8 8.8 4.8 8.8 8.8l2.4 15.2c0.8 4 4 8 7.2 8s6.4-3.2 7.2-8l2.4-16.8c0.8-4 4.8-8 8.8-8.8l14.4-0.8c4-1.6 8-4.8 8-8zM168 376c-17.6 0-32-14.4-32-32s14.4-32 32-32 32 14.4 32 32-14.4 32-32 32z m0-48.8c-9.6 0-16.8 7.2-16.8 16.8 0 9.6 8 16.8 16.8 16.8 9.6 0 16.8-7.2 16.8-16.8 0-9.6-7.2-16.8-16.8-16.8zM784 232c-17.6 0-32-14.4-32-32s14.4-32 32-32 32 14.4 32 32-14.4 32-32 32z m0-48.8c-9.6 0-16.8 7.2-16.8 16.8 0 9.6 8 16.8 16.8 16.8 9.6 0 16.8-7.2 16.8-16.8 0-9.6-7.2-16.8-16.8-16.8zM856 720c-17.6 0-32-14.4-32-32s14.4-32 32-32 32 14.4 32 32-14.4 32-32 32z m0-48.8c-9.6 0-16.8 7.2-16.8 16.8 0 9.6 8 16.8 16.8 16.8 9.6 0 16.8-7.2 16.8-16.8 0-9.6-7.2-16.8-16.8-16.8z" fill="#FFFFFF" opacity=".5" p-id="9706"></path><path d="M808 504c0-25.6-15.2-44.8-40-48v-44.8-0.8h-0.8c0-0.8 0.8-1.6 0.8-2.4 0-143.2-111.2-255.2-253.6-255.2C374.4 152.8 264 264.8 264 408c0 0.8 0 1.6 0.8 2.4H264V456c-24.8 4-40 22.4-40 48s15.2 52 40 56v248c0 22.4 17.6 40 40 40h23.2c-25.6 32.8-43.2 72-48.8 116 4.8 2.4 10.4 5.6 15.2 8C304 869.6 381.6 791.2 480 776v18.4c0 21.6 16.8 36.8 40 36.8s40-15.2 40-36.8v-16c91.2 20 161.6 97.6 172 195.2 4.8-2.4 10.4-4.8 15.2-7.2-5.6-44.8-23.2-85.6-49.6-119.2H728c22.4 0 40-17.6 40-40v-248c24.8-3.2 40-29.6 40-55.2z m-568 0c0-16.8 8-28 24-32v72c-16-4-24-23.2-24-40z m304 291.2c0 16-12.8 20.8-24 20.8s-24-5.6-24-20.8v-53.6c6.4 0.8 17.6 2.4 24 2.4 9.6 0 14.4-2.4 24-4v55.2z m208-384V808c0 13.6-10.4 24-24 24h-44c-32.8-35.2-76-59.2-124-69.6v-25.6c85.6-17.6 153.6-84 172.8-168h-16.8C693.6 659.2 617.6 728 520 728s-184.8-68.8-207.2-158.4H296c20 88 92.8 156 183.2 170.4V760c-54.4 7.2-103.2 33.6-139.2 72H304c-13.6 0-24-10.4-24-24V411.2v-0.8h-0.8c0-0.8 0.8-1.6 0.8-2.4 0-134.4 103.2-239.2 234.4-239.2C648 168.8 752 273.6 752 408v3.2zM768 544v-72c16 3.2 24 15.2 24 32s-8 36.8-24 40z" fill="#442611" p-id="9707"></path><path d="M280 563.2h40v105.6h-40zM712.8 563.2H752v105.6h-39.2z" fill="#633C22" p-id="9708"></path></svg>